<svg width="1200" height="630" viewBox="0 0 1200 630" fill="none" xmlns="http://www.w3.org/2000/svg">
  <!-- Background -->
  <rect width="1200" height="630" fill="#0a0a0a"/>
  
  <!-- Grid lines (Swiss style) -->
  <line x1="100" y1="0" x2="100" y2="630" stroke="#262626" stroke-width="1"/>
  <line x1="300" y1="0" x2="300" y2="630" stroke="#262626" stroke-width="1"/>
  <line x1="500" y1="0" x2="500" y2="630" stroke="#262626" stroke-width="1"/>
  <line x1="700" y1="0" x2="700" y2="630" stroke="#262626" stroke-width="1"/>
  <line x1="900" y1="0" x2="900" y2="630" stroke="#262626" stroke-width="1"/>
  <line x1="1100" y1="0" x2="1100" y2="630" stroke="#262626" stroke-width="1"/>
  
  <line x1="0" y1="100" x2="1200" y2="100" stroke="#262626" stroke-width="1"/>
  <line x1="0" y1="200" x2="1200" y2="200" stroke="#262626" stroke-width="1"/>
  <line x1="0" y1="315" x2="1200" y2="315" stroke="#262626" stroke-width="1"/>
  <line x1="0" y1="430" x2="1200" y2="430" stroke="#262626" stroke-width="1"/>
  <line x1="0" y1="530" x2="1200" y2="530" stroke="#262626" stroke-width="1"/>
  
  <!-- Accent rectangle -->
  <rect x="100" y="200" width="8" height="230" fill="#E63946"/>
  
  <!-- Title -->
  <text x="140" y="290" fill="white" font-family="Helvetica, Arial, sans-serif" font-size="72" font-weight="600">Arquitecto</text>
  
  <!-- Subtitle -->
  <text x="140" y="370" fill="#a3a3a3" font-family="Helvetica, Arial, sans-serif" font-size="28" font-weight="400">Consultoría Arquitectónica</text>
  
  <!-- Tagline -->
  <text x="140" y="410" fill="#737373" font-family="Helvetica, Arial, sans-serif" font-size="20" font-weight="400">Estrategia de Diseño · Gestión de Proyectos · Cumplimiento Normativo</text>
  
  <!-- Bottom accent line -->
  <rect x="0" y="620" width="1200" height="10" fill="#E63946"/>
</svg>

